<svg xmlns="http://www.w3.org/2000/svg" viewBox="0 0 121 81" width="120" height="120">
	<defs>
		<clipPath clipPathUnits="userSpaceOnUse" id="cp1">
			<path d="M120.35 80.25L120.35 0.28L0 0.28L0 80.25L120.35 80.25L120.35 80.25Z" />
		</clipPath>
	</defs>
	<style>
		tspan { white-space:pre }
		.shp0 { fill: #fefefe } 
		.shp1 { fill: #0b223e } 
		.shp2 { fill: #f9a11a } 
		.shp3 { fill: #2b5134 } 
	</style>
	<g id="Page-1">
		<g id="UTA">
			<g id="Page-1">
				<g id="Group-3">
					<g id="Clip-2">
					</g>
					<g id="Clip-Path: Fill-1" clip-path="url(#cp1)">
						<path id="Fill-1" fill-rule="evenodd" class="shp0" d="M43.6 43.84L62.61 0.28L120.35 0.28L109.88 24.27L61.12 24.27C59 29.12 48.51 53.17 47.3 55.96L47.3 57.08C47.3 67.17 38.78 80.25 23.64 80.25C10.61 80.25 0 69.62 0 56.57C0 43.51 10.61 32.89 23.64 32.89C31.87 32.89 39.58 37.34 43.6 43.84Z" />
					</g>
				</g>
				<path id="Fill-4" fill-rule="evenodd" class="shp1" d="M1.42 57.62C1.69 63.49 4.23 68.75 8.16 72.58C12.35 68.88 15.09 63.57 15.38 57.62L1.42 57.62Z" />
				<path id="Fill-6" fill-rule="evenodd" class="shp2" d="M17.35 57.62C17.05 64.07 14.13 69.85 9.64 73.89C13.22 76.81 17.73 78.64 22.68 78.86L22.68 57.62L17.35 57.62Z" />
				<path id="Fill-8" fill-rule="evenodd" class="shp1" d="M1.41 55.67L15.39 55.67C15.14 49.65 12.4 44.28 8.16 40.55C4.2 44.42 1.65 49.74 1.41 55.67Z" />
				<path id="Fill-10" fill-rule="evenodd" class="shp2" d="M9.64 39.24C14.18 43.32 17.1 49.15 17.35 55.67L22.68 55.67L22.68 34.27C17.73 34.49 13.23 36.32 9.64 39.24Z" />
				<path id="Fill-12" fill-rule="evenodd" class="shp1" d="M45.88 57.62L31.92 57.62C32.21 63.57 34.95 68.88 39.13 72.58C43.07 68.75 45.61 63.49 45.88 57.62Z" />
				<path id="Fill-14" fill-rule="evenodd" class="shp3" d="M29.96 57.62L24.63 57.62L24.63 78.86C29.57 78.64 34.07 76.81 37.67 73.89C33.17 69.85 30.25 64.07 29.96 57.62Z" />
				<path id="Fill-16" fill-rule="evenodd" class="shp3" d="M37.67 39.24C34.07 36.32 29.57 34.49 24.63 34.27L24.63 55.67L29.95 55.67C30.2 49.15 33.13 43.32 37.67 39.24Z" />
				<path id="Fill-18" fill-rule="evenodd" class="shp1" d="M63.53 1.69L43.75 47.04C42.6 44.6 41.04 42.41 39.14 40.55C34.91 44.28 32.16 49.66 31.91 55.67L45.89 55.67L60.19 22.87L101.96 22.87L111.19 1.69L63.53 1.69Z" />
				<path id="Fill-20" class="shp3" d="M108.96 22.86L118.2 1.69L114.26 1.69L105.03 22.86L108.96 22.86Z" />
			</g>
		</g>
	</g>
</svg>