<svg xmlns="http://www.w3.org/2000/svg" viewBox="0 0 100 100" width="100" height="100">
	<style>
		tspan { white-space:pre }
		.shp0 { fill: #fefefe } 
		.shp1 { fill: #c4cdd3 } 
		.shp2 { fill: #002a5b } 
		.shp3 { fill: #e21836 } 
	</style>
	<g id="Page-1">
		<g id="WAS">
			<g id="Page-1">
				<path id="Fill-1" fill-rule="evenodd" class="shp0" d="M49.84 1.28L49.75 1.28C22.92 1.29 1.16 23.03 1.11 49.89L1.11 49.97C1.11 76.83 22.85 98.62 49.7 98.65L49.73 98.65L49.76 98.65L49.77 98.65C76.61 98.64 98.37 76.89 98.4 50.02L98.4 50L98.4 49.96C98.4 23.11 76.67 1.33 49.84 1.28Z" />
				<g id="Group-5">
					<path id="Fill-3" fill-rule="evenodd" class="shp1" d="M99.51 49.86C99.51 49.91 99.51 49.93 99.51 49.93C99.51 49.96 99.51 49.98 99.51 50C99.49 77.46 77.26 99.72 49.81 99.75L49.74 99.75C22.29 99.74 0.04 77.5 0 50.02L0 49.99L0 49.94C0.01 22.51 22.21 0.24 49.65 0.17L49.76 0.17C77.19 0.18 99.44 22.4 99.51 49.86ZM98.4 49.96C98.4 23.11 76.68 1.33 49.84 1.28L49.75 1.28C22.92 1.28 1.15 23.03 1.11 49.89L1.11 49.97C1.11 76.83 22.85 98.62 49.7 98.65L49.77 98.65C76.61 98.64 98.37 76.89 98.4 50.02L98.4 49.96Z" />
				</g>
				<path id="Fill-6" fill-rule="evenodd" class="shp2" d="M33.49 38.91C38.55 33.85 40.67 27.94 40.67 27.94L41.8 23.84L42.07 22.88L36.89 19.98C36.89 19.98 33.87 17.88 27.12 21.8C19.21 26.47 12.78 32.5 9.45 38.9C7.6 42.45 6.14 46.53 5.39 51.17C5.62 59.96 8.39 68.11 13.01 74.91C11.7 62.25 23.92 48.38 33.49 38.91Z" />
				<path id="Fill-8" fill-rule="evenodd" class="shp2" d="M72.46 21.8C65.71 17.88 62.69 19.98 62.69 19.98L57.51 22.88L57.78 23.84L58.91 27.94C58.91 27.94 61.03 33.85 66.09 38.91C75.63 48.35 87.82 62.16 86.59 74.79C91.22 67.91 93.98 59.66 94.14 50.78C93.36 46.3 91.92 42.35 90.13 38.9C86.8 32.5 80.37 26.46 72.46 21.8Z" />
				<path id="Fill-10" fill-rule="evenodd" class="shp3" d="M56.22 14.21C73.96 16.22 85.63 26.29 91.65 35.23C87.12 22.33 76.81 12.16 63.83 7.82C60.96 8.67 57.79 10.45 56.22 14.21Z" />
				<path id="Fill-12" fill-rule="evenodd" class="shp3" d="M43.36 14.21C41.79 10.43 38.59 8.65 35.71 7.81C22.65 12.17 12.29 22.43 7.79 35.44C13.77 26.45 25.48 16.23 43.36 14.21Z" />
				<path id="Fill-14" fill-rule="evenodd" class="shp3" d="M46.27 13.71L49.79 8.52L53.32 13.71C54.73 9.84 56.96 7.71 59.19 6.55C56.17 5.89 53.03 5.54 49.8 5.54C46.57 5.53 43.41 5.89 40.37 6.54C42.61 7.7 44.85 9.83 46.27 13.71Z" />
				<path id="Fill-16" fill-rule="evenodd" class="shp2" d="M73.91 52.63C66.69 40.94 50.3 29.15 49.79 28.78C49.28 29.15 32.89 40.94 25.68 52.63C15.94 68.4 17.2 77.49 19.72 82.68C26 88.46 33.94 92.45 42.75 93.84L46.55 39.99L49.71 36.81L49.75 36.76L49.75 36.77L49.76 36.76L49.8 36.81L52.96 39.99L56.79 93.8L56.73 93.83C65.61 92.43 73.61 88.41 79.92 82.56C82.4 77.35 83.58 68.28 73.91 52.63Z" />
				<path id="Fill-18" class="shp1" d="M52.96 39.98L49.8 36.81L49.83 97.76L56.73 93.83L56.78 93.8L52.96 39.98Z" />
				<path id="Fill-20" fill-rule="evenodd" class="shp1" d="M49.77 24.69L48.39 25.71L42.6 29.98L44.12 24.47L44.38 23.52L44.89 21.67L43.21 20.76L37.76 17.83C40.51 17.22 43.32 16.83 46.15 16.65L47.54 16.56L47.6 16.44L48.15 15.31L48.24 15.13L48.24 15.13L49.79 11.97L51.39 15.24L51.39 15.24L51.43 15.31L51.99 16.44L52.04 16.56L53.43 16.65C56.26 16.83 59.07 17.22 61.82 17.83L56.38 20.76L54.69 21.67L55.2 23.52L55.47 24.47L56.98 29.98L51.19 25.71L49.81 24.69L49.81 24.66L49.79 24.68L49.77 24.66L49.77 24.69Z" />
				<path id="Fill-22" fill-rule="evenodd" class="shp1" d="M49.81 24.66L49.81 24.69L51.19 25.71L56.98 29.98L55.46 24.47L55.2 23.52L54.69 21.67L56.38 20.77L61.82 17.83C59.07 17.22 56.27 16.83 53.43 16.65L52.04 16.56L51.99 16.44L51.43 15.31L51.39 15.24L49.79 11.98L48.24 15.13L48.24 15.13L48.15 15.31L47.6 16.44L47.54 16.56L46.15 16.65C43.32 16.83 40.51 17.22 37.76 17.83L43.21 20.77L44.89 21.67L44.38 23.52L44.12 24.47L42.6 29.98L48.39 25.71L49.77 24.69L49.77 24.66L49.79 24.68L49.81 24.66Z" />
			</g>
		</g>
	</g>
</svg>